<svg width="80" height="80" viewBox="0 0 80 80" fill="none" xmlns="http://www.w3.org/2000/svg">
<g clip-path="url(#clip0_7591_7857)">
<path d="M15.2881 73.0448C15.2881 73.9408 15.1125 74.8281 14.7714 75.6559C14.4302 76.4838 13.9301 77.236 13.2996 77.8696C12.6692 78.5032 11.9208 79.0058 11.0971 79.3487C10.2734 79.6916 9.39054 79.8681 8.49898 79.8681H6.82042C5.01982 79.8681 3.29297 79.1492 2.01975 77.8696C0.746537 76.59 0.0312501 74.8544 0.0312501 73.0448V72.0218C0.0311285 71.1256 0.20667 70.2381 0.54785 69.41C0.88903 68.5819 1.38917 67.8295 2.0197 67.1958C2.65023 66.562 3.3988 66.0592 4.22268 65.7162C5.04655 65.3732 5.92958 65.1967 6.82135 65.1967H8.22693C8.28266 65.1965 8.33787 65.2075 8.38939 65.2288C8.44092 65.2502 8.48775 65.2815 8.5272 65.3211C8.56665 65.3606 8.59795 65.4076 8.61931 65.4594C8.64066 65.5111 8.65166 65.5666 8.65166 65.6226V67.065C8.65166 67.121 8.64066 67.1765 8.61931 67.2282C8.59795 67.2799 8.56665 67.3269 8.5272 67.3665C8.48775 67.4061 8.44092 67.4374 8.38939 67.4588C8.33787 67.4801 8.28266 67.491 8.22693 67.4909H7.20073C4.62368 67.4909 2.53243 69.7154 2.53243 72.4598V72.7053C2.53243 75.4488 4.62276 77.6733 7.20073 77.6733H8.10478C10.1544 77.6733 11.8912 76.2662 12.5186 74.3114H7.76149C7.6523 74.3114 7.56254 74.1329 7.56254 73.9115V72.178C7.56254 71.9651 7.64859 71.7921 7.75501 71.7921H14.993C15.0687 71.7923 15.1412 71.8225 15.1949 71.8761C15.2486 71.9298 15.2791 72.0025 15.2798 72.0785L15.2881 73.0448Z" fill="white"/>
<path d="M35.0979 79.8727H32.8086C32.6913 79.8701 32.5776 79.8314 32.4828 79.7619C32.3881 79.6924 32.3167 79.5954 32.2784 79.484L28.4901 69.4402C28.1199 68.4683 27.2631 67.835 26.2989 67.8266C25.3014 67.8266 24.4316 68.4683 24.067 69.4588L20.3712 79.4812C20.3335 79.5938 20.2622 79.692 20.167 79.7624C20.0718 79.8328 19.9573 79.872 19.8391 79.8746H17.6193C17.5836 79.872 17.5492 79.8608 17.5188 79.8419C17.4884 79.823 17.4631 79.797 17.4449 79.7661C17.4267 79.7352 17.4162 79.7003 17.4144 79.6645C17.4125 79.6286 17.4193 79.5929 17.4342 79.5602L21.9887 68.4116C23.0528 65.8076 25.8825 64.4517 28.5271 65.7147C29.6625 66.2578 30.5295 67.3133 31.0135 68.5632L35.282 79.5612C35.2968 79.5936 35.3035 79.6291 35.3016 79.6646C35.2997 79.7002 35.2892 79.7348 35.2711 79.7654C35.253 79.796 35.2278 79.8218 35.1976 79.8405C35.1675 79.8592 35.1332 79.8702 35.0979 79.8727Z" fill="white"/>
<path d="M54.0033 65.6905C54.0033 66.2271 53.9941 66.7627 53.9895 67.2984C53.988 67.4184 53.9396 67.533 53.8548 67.6174C53.7699 67.7018 53.6554 67.7492 53.536 67.7495H38.8279C38.7224 67.7492 38.6214 67.707 38.5468 67.6321C38.4722 67.5571 38.4302 67.4555 38.43 67.3496V65.6142C38.43 65.5119 38.4704 65.4137 38.5425 65.3413C38.6145 65.2689 38.7121 65.2283 38.814 65.2283H53.549C53.6091 65.2284 53.6686 65.2405 53.724 65.2638C53.7794 65.2871 53.8297 65.3213 53.872 65.3643C53.9142 65.4072 53.9476 65.4582 53.9701 65.5142C53.9927 65.5701 54.004 65.6301 54.0033 65.6905ZM49.7283 71.7661C49.724 72.2968 49.7191 72.8278 49.7135 73.3591C49.712 73.479 49.6636 73.5935 49.5787 73.6777C49.4939 73.762 49.3794 73.8092 49.2601 73.8092L41.5391 73.7999C41.461 73.7997 41.3836 73.8149 41.3114 73.8447C41.2392 73.8746 41.1735 73.9184 41.1182 73.9738C41.0628 74.0292 41.0189 74.095 40.9888 74.1674C40.9588 74.2399 40.9433 74.3176 40.9432 74.396L40.9312 79.5054C40.9309 79.6012 40.8929 79.6929 40.8254 79.7606C40.7579 79.8282 40.6665 79.8662 40.5712 79.8662H38.7566C38.666 79.8619 38.5808 79.8217 38.5196 79.7544C38.4584 79.6872 38.4262 79.5983 38.43 79.5072V74.3309C38.43 73.5281 38.7473 72.7581 39.3122 72.1905C39.877 71.6228 40.6431 71.3039 41.4419 71.3039H49.2758C49.3359 71.3038 49.3953 71.3158 49.4507 71.3392C49.5061 71.3625 49.5563 71.3966 49.5984 71.4397C49.6405 71.4827 49.6737 71.5337 49.696 71.5897C49.7183 71.6458 49.7293 71.7057 49.7283 71.7661Z" fill="white"/>
<path d="M59.9459 65.5807V79.5184C59.9496 79.6073 59.9181 79.6941 59.8583 79.7596C59.7984 79.8252 59.7151 79.8642 59.6266 79.8681H57.7649C57.6764 79.8642 57.5931 79.8252 57.5332 79.7596C57.4734 79.6941 57.4419 79.6073 57.4456 79.5184V65.5807C57.4419 65.4918 57.4734 65.405 57.5332 65.3395C57.5931 65.2739 57.6764 65.2349 57.7649 65.231H59.6294C59.7174 65.2356 59.8 65.2749 59.8592 65.3404C59.9185 65.4059 59.9496 65.4923 59.9459 65.5807Z" fill="white"/>
<path d="M79.9767 65.5844V76.6922C79.9767 78.4461 78.6812 79.8671 77.0795 79.8671H76.3105C74.83 79.8671 73.4735 78.9669 72.7869 77.5301L68.3721 68.2898C68.3306 68.1966 68.2635 68.1173 68.1788 68.061C68.0941 68.0047 67.9952 67.9737 67.8937 67.9717H67.642C67.2719 67.9717 66.9656 68.3037 66.9656 68.7157V79.5184C66.9691 79.6082 66.9371 79.6958 66.8766 79.762C66.8161 79.8282 66.732 79.8677 66.6427 79.8718H64.792C64.7026 79.8679 64.6183 79.8285 64.5577 79.7623C64.4972 79.696 64.4653 79.6083 64.469 79.5184V68.4069C64.469 66.6539 65.7645 65.232 67.3663 65.232H68.027C69.3937 65.232 70.6512 66.0522 71.3017 67.3709L75.8784 76.6364C75.9215 76.7281 75.9894 76.8059 76.0743 76.8608C76.1592 76.9157 76.2577 76.9456 76.3587 76.947H76.8102C77.1804 76.947 77.4811 76.6122 77.4811 76.203V65.5844C77.4773 65.4945 77.5092 65.4068 77.5698 65.3406C77.6303 65.2743 77.7146 65.2349 77.804 65.231H79.6593C79.7479 65.2361 79.8308 65.276 79.8903 65.3422C79.9497 65.4084 79.9808 65.4954 79.9767 65.5844Z" fill="white"/>
<path d="M10.6285 26.0499C10.4092 38.1611 20.5851 53.3756 32.8615 54.9492C40.5047 55.9284 60.5447 45.6744 69.525 23.6487C70.7881 20.5509 74.3034 6.42635 70.3486 0.298691C64.8623 1.78666 55.7653 7.91618 50.6575 17.0244C46.2112 14.5405 31.4605 13.2887 22.4801 22.9038C21.7047 16.4823 19.223 12.0351 16.8356 11.0065C10.6285 14.3749 10.6285 26.0499 10.6285 26.0499Z" fill="#FFC100"/>
<path d="M19.5457 37.2888C18.9266 32.9885 22.9046 29.1979 30.1796 26.315C40.4915 22.2231 49.0129 22.7085 49.4469 28.3498C49.4469 28.3386 49.4469 28.3265 49.4469 28.3154C49.4469 21.8353 40.163 21.1759 28.8675 25.6547C21.1039 28.732 16.8604 32.7774 17.5201 37.3669C18.0753 41.2133 25.8306 51.7417 32.8677 50.4174C35.7881 49.8677 38.5483 47.9064 40.9486 45.322C38.8324 47.4544 36.4432 49.0484 33.9281 49.5218C27.3351 50.7615 20.0639 40.8943 19.5457 37.2888Z" fill="#1A1A1A"/>
<path d="M49.4505 28.3479C49.0165 22.7067 40.4951 22.2249 30.1832 26.3131C22.9082 29.1961 18.9302 32.9885 19.5493 37.2869C20.0674 40.8925 27.3369 50.7596 33.9326 49.5181C36.4477 49.0447 38.8369 47.4507 40.9531 45.3183C45.9786 40.2545 49.4662 32.1543 49.4662 28.8045C49.4653 28.6483 49.4588 28.4977 49.4505 28.3479Z" fill="#E6E6E6"/>
<path d="M70.3494 0.298691C67.5003 1.07244 63.6787 3.09701 59.9468 6.13898C62.1537 16.3335 63.3567 39.2641 36.7607 54.6934C45.9271 52.8093 61.8086 42.5748 69.5305 23.6487C70.7889 20.5509 74.3043 6.42635 70.3494 0.298691Z" fill="#EE8019"/>
<path d="M20.0466 14.5126C19.0759 12.7019 17.9451 11.4855 16.8347 11.0065C10.6294 14.3749 10.6294 26.0499 10.6294 26.0499C10.5193 32.1376 13.0353 39.0083 17.1244 44.5371C12.2895 34.3008 13.1093 22.1533 20.0466 14.5126Z" fill="#EE6F19"/>
<path d="M42.5503 33.2871C42.0846 33.2872 41.627 33.1642 41.2234 32.9304C40.8199 32.6966 40.4847 32.3603 40.2513 31.9551C40.018 31.55 39.8948 31.0903 39.8941 30.6222C39.8933 30.1541 40.0151 29.694 40.2472 29.2881C37.8024 29.5746 34.7923 31.1481 34.5268 33.4089C34.2094 36.1189 35.094 38.4503 37.5989 38.747C40.1038 39.0437 43.2786 37.193 43.5969 34.483C43.657 33.9678 43.7126 33.4712 43.7468 33.0016C43.376 33.1903 42.966 33.2881 42.5503 33.2871Z" fill="black"/>
<path d="M28.3439 36.1477C28.0993 36.5101 27.7335 36.7723 27.3129 36.8866C26.8924 37.001 26.4449 36.96 26.0519 36.771C25.6589 36.582 25.3464 36.2576 25.1711 35.8567C24.9959 35.4558 24.9695 35.005 25.0969 34.5862C24.6339 34.6562 24.1863 34.8056 23.7736 35.028C22.4125 35.772 22.394 36.9698 23.2786 38.5935C24.1632 40.2173 26.4654 40.6637 27.8266 39.9151C29.1137 39.2073 29.098 37.6859 28.3439 36.1477Z" fill="black"/>
<path d="M45.1567 15.4769C38.7035 14.6521 29.0495 15.8703 22.4805 22.9038C22.4805 22.8871 22.4805 22.8694 22.474 22.8526C20.046 25.4436 18.0269 30.02 17.4541 34.3491C20.5031 26.0323 30.9889 17.893 45.1567 15.4769Z" fill="#F9E066"/>
</g>
<defs>
<clipPath id="clip0_7591_7857">
<rect width="80" height="80" fill="white"/>
</clipPath>
</defs>
</svg>
